{"title":"Gabbar Is Back 2015 Movies Non Retail DVDRip XviD +Sample â˜»rDXâ˜»","uid":11877409,"size":740134856,"categoryP":"video","categoryS":"movies","magnet":"?xt=urn:btih:e131574237c1d97657bee5c1453b845a7ef7b0f1&amp;dn=Gabbar+Is+Back+2015+Movies+Non+Retail+DVDRip+XviD+%2BSample+%E2%98%BBrDX%E2%98%BB&amp;tr=udp%3A%2F%2Ftracker.openbittorrent.com%3A80&amp;tr=udp%3A%2F%2Fopen.demonii.com%3A1337&amp;tr=udp%3A%2F%2Ftracker.coppersurfer.tk%3A6969&amp;tr=udp%3A%2F%2Fexodus.desync.com%3A6969","seeders":38,"leechers":6,"uploader":"basicssom","files":2,"time":1430580378,"description":"----------------------------------------------------------------\nGabbar Is Back 2015 Hindi Movies Non Retail DVDRip XviD AAC with Sample ~ â˜»rDXâ˜»\n\nSCREEN SHOTS &amp; POSTER:\n &lt;a href=&quot;\nhttp://postimage.co.nr/2015/5/GabbarIsBacknd/11.html&quot; rel=&quot;nofollow&quot; target=&quot;_NEW&quot;&gt;\nhttp://postimage.co.nr/2015/5/GabbarIsBacknd/11.html&lt;/a&gt; &lt;a href=&quot;\nhttp://postimage.co.nr/2015/5/GabbarIsBacknd/1.html&quot; rel=&quot;nofollow&quot; target=&quot;_NEW&quot;&gt;\nhttp://postimage.co.nr/2015/5/GabbarIsBacknd/1.html&lt;/a&gt; &lt;a href=&quot;\nhttp://postimage.co.nr/2015/5/GabbarIsBacknd/2.html&quot; rel=&quot;nofollow&quot; target=&quot;_NEW&quot;&gt;\nhttp://postimage.co.nr/2015/5/GabbarIsBacknd/2.html&lt;/a&gt; &lt;a href=&quot;\nhttp://postimage.co.nr/2015/5/GabbarIsBacknd/3.html&quot; rel=&quot;nofollow&quot; target=&quot;_NEW&quot;&gt;\nhttp://postimage.co.nr/2015/5/GabbarIsBacknd/3.html&lt;/a&gt; &lt;a href=&quot;\nhttp://postimage.co.nr/2015/5/GabbarIsBacknd/4.html&quot; rel=&quot;nofollow&quot; target=&quot;_NEW&quot;&gt;\nhttp://postimage.co.nr/2015/5/GabbarIsBacknd/4.html&lt;/a&gt; &lt;a href=&quot;\nhttp://postimage.co.nr/2015/5/GabbarIsBacknd/5.html&quot; rel=&quot;nofollow&quot; target=&quot;_NEW&quot;&gt;\nhttp://postimage.co.nr/2015/5/GabbarIsBacknd/5.html&lt;/a&gt; &lt;a href=&quot;\nhttp://postimage.co.nr/2015/5/GabbarIsBacknd/6.html&quot; rel=&quot;nofollow&quot; target=&quot;_NEW&quot;&gt;\nhttp://postimage.co.nr/2015/5/GabbarIsBacknd/6.html&lt;/a&gt; &lt;a href=&quot;\nhttp://postimage.co.nr/2015/5/GabbarIsBacknd/7.html&quot; rel=&quot;nofollow&quot; target=&quot;_NEW&quot;&gt;\nhttp://postimage.co.nr/2015/5/GabbarIsBacknd/7.html&lt;/a&gt; &lt;a href=&quot;\nhttp://postimage.co.nr/2015/5/GabbarIsBacknd/8.html&quot; rel=&quot;nofollow&quot; target=&quot;_NEW&quot;&gt;\nhttp://postimage.co.nr/2015/5/GabbarIsBacknd/8.html&lt;/a&gt; &lt;a href=&quot;\nhttp://postimage.co.nr/2015/5/GabbarIsBacknd/9.html&quot; rel=&quot;nofollow&quot; target=&quot;_NEW&quot;&gt;\nhttp://postimage.co.nr/2015/5/GabbarIsBacknd/9.html&lt;/a&gt; &lt;a href=&quot;\nhttp://postimage.co.nr/2015/5/GabbarIsBacknd/10.html&quot; rel=&quot;nofollow&quot; target=&quot;_NEW&quot;&gt;\nhttp://postimage.co.nr/2015/5/GabbarIsBacknd/10.html&lt;/a&gt;\n\nFormat                                   : Matroska\nFormat version                           : Version 4 / Version 2\nFile size                                : 692 MiB\nOverall bit rate                         : 753 Kbps\nMovie name                               : Gabbar Is Back 2015 Hindi Movies Non Retail DVDRip XviD AAC ~ rDX ~\n\nVideo\nID                                       : 1\nFormat                                   : MPEG-4 Visual\nFormat profile                           : Advanced Simple@L5\nFormat settings, BVOP                    : Yes\nFormat settings, QPel                    : No\nFormat settings, GMC                     : No warppoints\nFormat settings, Matrix                  : Default (H.263)\nCodec ID                                 : V_MS/VFW/FOURCC / XVID\nCodec ID/Hint                            : XviD\nBit rate                                 : 658 Kbps\nWidth                                    : 640 pixels\nHeight                                   : 272 pixels\nDisplay aspect ratio                     : 2.35:1\nFrame rate mode                          : Constant\nFrame rate                               : 23.976 fps\nColor space                              : YUV\nChroma subsampling                       : 4:2:0\nBit depth                                : 8 bits\nScan type                                : Progressive\nCompression mode                         : Lossy\nBits/(Pixel*Frame)                       : 0.158\nStream size                              : 604 MiB (87%)\nTitle                                    : ~ rDX ~\nWriting library                          : XviD 1.2.1 (UTC 2008-12-04)\nDefault                                  : Yes\nForced                                   : No\n\nAudio\nID                                       : 2\nFormat                                   : MPEG Audio\nFormat version                           : Version 1\nFormat profile                           : Layer 3\nMode                                     : Joint stereo\nMode extension                           : MS Stereo\nCodec ID                                 : A_MPEG/L3\nCodec ID/Hint                            : MP3\nBit rate mode                            : Constant\nBit rate                                 : 80.0 Kbps\nChannel(s)                               : 2 channels\nSampling rate                            : 32.0 KHz\nCompression mode                         : Lossy\nStream size                              : 73.5 MiB (11%)\nTitle                                    : ~ rDX ~\nWriting library                          : LAME3.99r\nEncoding settings                        : -m j -V 4 -q 2 -lowpass 13.5 -b 80\nDefault                                  : Yes\nForced                                   : No","torrent":{"xt":"urn:btih:e131574237c1d97657bee5c1453b845a7ef7b0f1","amp;dn":"Gabbar+Is+Back+2015+Movies+Non+Retail+DVDRip+XviD+%2BSample+%E2%98%BBrDX%E2%98%BB","amp;tr":["udp%3A%2F%2Ftracker.openbittorrent.com%3A80","udp%3A%2F%2Fopen.demonii.com%3A1337","udp%3A%2F%2Ftracker.coppersurfer.tk%3A6969","udp%3A%2F%2Fexodus.desync.com%3A6969"],"infoHash":"e131574237c1d97657bee5c1453b845a7ef7b0f1","infoHashBuffer":{"type":"Buffer","data":[225,49,87,66,55,193,217,118,87,190,229,193,69,59,132,90,126,247,176,241]},"announce":[],"urlList":[]}}